HIERARCHY
ROOT Hips
{
  OFFSET 0.0 0.0 0.0
  CHANNELS 6 Xposition Yposition Zposition Zrotation Xrotation Yrotation
  JOINT Spine
  {
    OFFSET 0.0 10.0 0.0
    CHANNELS 3 Zrotation Xrotation Yrotation
    JOINT Chest
    {
      OFFSET 0.0 10.0 0.0
      CHANNELS 3 Zrotation Xrotation Yrotation
      JOINT Neck
      {
        OFFSET 0.0 5.0 0.0
        CHANNELS 3 Zrotation Xrotation Yrotation
        JOINT Head
        {
          OFFSET 0.0 5.0 0.0
          CHANNELS 3 Zrotation Xrotation Yrotation
          End Site
          {
            OFFSET 0.0 3.0 0.0
          }
        }
      }
      JOINT LeftShoulder
      {
        OFFSET 5.0 3.0 0.0
        CHANNELS 3 Zrotation Xrotation Yrotation
        JOINT LeftArm
        {
          OFFSET 10.0 0.0 0.0
          CHANNELS 3 Zrotation Xrotation Yrotation
          JOINT LeftForeArm
          {
            OFFSET 10.0 0.0 0.0
            CHANNELS 3 Zrotation Xrotation Yrotation
            JOINT LeftHand
            {
              OFFSET 8.0 0.0 0.0
              CHANNELS 3 Zrotation Xrotation Yrotation
              End Site
              {
                OFFSET 3.0 0.0 0.0
              }
            }
          }
        }
      }
      JOINT RightShoulder
      {
        OFFSET -5.0 3.0 0.0
        CHANNELS 3 Zrotation Xrotation Yrotation
        JOINT RightArm
        {
          OFFSET -10.0 0.0 0.0
          CHANNELS 3 Zrotation Xrotation Yrotation
          JOINT RightForeArm
          {
            OFFSET -10.0 0.0 0.0
            CHANNELS 3 Zrotation Xrotation Yrotation
            JOINT RightHand
            {
              OFFSET -8.0 0.0 0.0
              CHANNELS 3 Zrotation Xrotation Yrotation
              End Site
              {
                OFFSET -3.0 0.0 0.0
              }
            }
          }
        }
      }
    }
  }
  JOINT LeftHip
  {
    OFFSET 5.0 -2.0 0.0
    CHANNELS 3 Zrotation Xrotation Yrotation
    JOINT LeftThigh
    {
      OFFSET 0.0 -20.0 0.0
      CHANNELS 3 Zrotation Xrotation Yrotation
      JOINT LeftShin
      {
        OFFSET 0.0 -20.0 0.0
        CHANNELS 3 Zrotation Xrotation Yrotation
        JOINT LeftFoot
        {
          OFFSET 0.0 -5.0 0.0
          CHANNELS 3 Zrotation Xrotation Yrotation
          End Site
          {
            OFFSET 0.0 -2.0 5.0
          }
        }
      }
    }
  }
  JOINT RightHip
  {
    OFFSET -5.0 -2.0 0.0
    CHANNELS 3 Zrotation Xrotation Yrotation
    JOINT RightThigh
    {
      OFFSET 0.0 -20.0 0.0
      CHANNELS 3 Zrotation Xrotation Yrotation
      JOINT RightShin
      {
        OFFSET 0.0 -20.0 0.0
        CHANNELS 3 Zrotation Xrotation Yrotation
        JOINT RightFoot
        {
          OFFSET 0.0 -5.0 0.0
          CHANNELS 3 Zrotation Xrotation Yrotation
          End Site
          {
            OFFSET 0.0 -2.0 5.0
          }
        }
      }
    }
  }
}
MOTION
Frames: 16
Frame Time: 0.033333
0.000000 40.000000 10.000000 0.000000 0.000000 0.000000 0.000000 0.000000 0.000000 0.000000 0.000000 0.000000 0.000000 0.000000 0.000000 0.000000 0.000000 0.000000 0.000000 0.000000 -10.000000 0.000000 0.000000 -0.000000 0.000000 0.000000 -0.000000 0.000000 0.000000 0.000000 0.000000 0.000000 10.000000 0.000000 0.000000 0.000000 0.000000 0.000000 0.000000 0.000000 0.000000 0.000000 0.000000 0.000000 0.000000 0.000000 0.000000 0.000000 0.000000 0.000000 -0.000000 0.000000 0.000000 0.000000 0.000000 0.000000 0.000000 0.000000 0.000000 -0.000000 0.000000 0.000000 0.000000 0.000000 0.000000 0.000000
0.701455 40.000000 9.975368 0.350728 0.000000 0.000000 0.000000 0.000000 0.000000 0.000000 0.175364 0.000000 0.000000 0.000000 0.000000 0.000000 0.105218 0.000000 0.000000 0.000000 -10.000000 0.000000 0.000000 -0.839673 0.000000 0.000000 -0.839673 0.000000 0.000000 0.000000 0.000000 0.000000 10.000000 0.000000 0.000000 0.839673 0.000000 0.000000 0.000000 0.000000 0.000000 0.000000 0.000000 0.000000 0.000000 0.000000 0.000000 2.798910 0.000000 0.000000 0.000000 0.000000 0.000000 0.000000 0.000000 0.000000 0.000000 0.000000 0.000000 -2.798910 0.000000 0.000000 2.798910 0.000000 0.000000 0.000000
1.399455 40.000000 9.901592 0.699728 0.000000 0.000000 0.000000 0.000000 0.000000 0.000000 0.349864 0.000000 0.000000 0.000000 0.000000 0.000000 0.209918 0.000000 0.000000 0.000000 -10.000000 0.000000 0.000000 -1.662820 0.000000 0.000000 -1.662820 0.000000 0.000000 0.000000 0.000000 0.000000 10.000000 0.000000 0.000000 1.662820 0.000000 0.000000 0.000000 0.000000 0.000000 0.000000 0.000000 0.000000 0.000000 0.000000 0.000000 5.542733 0.000000 0.000000 0.000000 0.000000 0.000000 0.000000 0.000000 0.000000 0.000000 0.000000 0.000000 -5.542733 0.000000 0.000000 5.542733 0.000000 0.000000 0.000000
2.090560 40.000000 9.779037 1.045280 0.000000 0.000000 0.000000 0.000000 0.000000 0.000000 0.522640 0.000000 0.000000 0.000000 0.000000 0.000000 0.313584 0.000000 0.000000 0.000000 -10.000000 0.000000 0.000000 -2.453240 0.000000 0.000000 -2.453240 0.000000 0.000000 0.000000 0.000000 0.000000 10.000000 0.000000 0.000000 2.453240 0.000000 0.000000 0.000000 0.000000 0.000000 0.000000 0.000000 0.000000 0.000000 0.000000 0.000000 8.177466 0.000000 0.000000 0.000000 0.000000 0.000000 0.000000 0.000000 0.000000 0.000000 0.000000 0.000000 -8.177466 0.000000 0.000000 8.177466 0.000000 0.000000 0.000000
2.771367 40.000000 9.608305 1.385683 0.000000 0.000000 0.000000 0.000000 0.000000 0.000000 0.692842 0.000000 0.000000 0.000000 0.000000 0.000000 0.415705 0.000000 0.000000 0.000000 -10.000000 0.000000 0.000000 -3.195376 0.000000 0.000000 -3.195376 0.000000 0.000000 0.000000 0.000000 0.000000 10.000000 0.000000 0.000000 3.195376 0.000000 0.000000 0.000000 0.000000 0.000000 0.000000 0.000000 0.000000 0.000000 0.000000 0.000000 10.651254 0.000000 0.000000 0.000000 0.000000 0.000000 0.000000 0.000000 0.000000 0.000000 0.000000 0.000000 -10.651254 0.000000 0.000000 10.651254 0.000000 0.000000 0.000000
3.438520 40.000000 9.390239 1.719260 0.000000 0.000000 0.000000 0.000000 0.000000 0.000000 0.859630 0.000000 0.000000 0.000000 0.000000 0.000000 0.515778 0.000000 0.000000 0.000000 -10.000000 0.000000 0.000000 -3.874623 0.000000 0.000000 -3.874623 0.000000 0.000000 0.000000 0.000000 0.000000 10.000000 0.000000 0.000000 3.874623 0.000000 0.000000 0.000000 0.000000 0.000000 0.000000 0.000000 0.000000 0.000000 0.000000 0.000000 12.915408 0.000000 0.000000 0.000000 0.000000 0.000000 0.000000 0.000000 0.000000 0.000000 0.000000 0.000000 -12.915408 0.000000 0.000000 12.915408 0.000000 0.000000 0.000000
4.088733 40.000000 9.125912 2.044367 0.000000 0.000000 0.000000 0.000000 0.000000 0.000000 1.022183 0.000000 0.000000 0.000000 0.000000 0.000000 0.613310 0.000000 0.000000 0.000000 -10.000000 0.000000 0.000000 -4.477610 0.000000 0.000000 -4.477610 0.000000 0.000000 0.000000 0.000000 0.000000 10.000000 0.000000 0.000000 4.477610 0.000000 0.000000 0.000000 0.000000 0.000000 0.000000 0.000000 0.000000 0.000000 0.000000 0.000000 14.925367 0.000000 0.000000 0.000000 0.000000 0.000000 0.000000 0.000000 0.000000 0.000000 0.000000 0.000000 -14.925367 0.000000 0.000000 14.925367 0.000000 0.000000 0.000000
4.718804 40.000000 8.816626 2.359402 0.000000 0.000000 0.000000 0.000000 0.000000 0.000000 1.179701 0.000000 0.000000 0.000000 0.000000 0.000000 0.707821 0.000000 0.000000 0.000000 -10.000000 0.000000 0.000000 -4.992471 0.000000 0.000000 -4.992471 0.000000 0.000000 0.000000 0.000000 0.000000 10.000000 0.000000 0.000000 4.992471 0.000000 0.000000 0.000000 0.000000 0.000000 0.000000 0.000000 0.000000 0.000000 0.000000 0.000000 16.641571 0.000000 0.000000 0.000000 0.000000 0.000000 0.000000 0.000000 0.000000 0.000000 0.000000 0.000000 -16.641571 0.000000 0.000000 16.641571 0.000000 0.000000 0.000000
5.325627 40.000000 8.463905 2.662814 0.000000 0.000000 0.000000 0.000000 0.000000 0.000000 1.331407 0.000000 0.000000 0.000000 0.000000 0.000000 0.798844 0.000000 0.000000 0.000000 -10.000000 0.000000 0.000000 -5.409073 0.000000 0.000000 -5.409073 0.000000 0.000000 0.000000 0.000000 0.000000 10.000000 0.000000 0.000000 5.409073 0.000000 0.000000 0.000000 0.000000 0.000000 0.000000 0.000000 0.000000 0.000000 0.000000 0.000000 18.030242 0.000000 0.000000 0.000000 0.000000 0.000000 0.000000 0.000000 0.000000 0.000000 0.000000 0.000000 -18.030242 0.000000 0.000000 18.030242 0.000000 0.000000 0.000000
5.906214 40.000000 8.069488 2.953107 0.000000 0.000000 0.000000 0.000000 0.000000 0.000000 1.476554 0.000000 0.000000 0.000000 0.000000 0.000000 0.885932 0.000000 0.000000 0.000000 -10.000000 0.000000 0.000000 -5.719215 0.000000 0.000000 -5.719215 0.000000 0.000000 0.000000 0.000000 0.000000 10.000000 0.000000 0.000000 5.719215 0.000000 0.000000 0.000000 0.000000 0.000000 0.000000 0.000000 0.000000 0.000000 0.000000 0.000000 19.064049 0.000000 0.000000 0.000000 0.000000 0.000000 0.000000 0.000000 0.000000 0.000000 0.000000 0.000000 -19.064049 0.000000 0.000000 19.064049 0.000000 0.000000 0.000000
6.457704 40.000000 7.635316 3.228852 0.000000 0.000000 0.000000 0.000000 0.000000 0.000000 1.614426 0.000000 0.000000 0.000000 0.000000 0.000000 0.968656 0.000000 0.000000 0.000000 -10.000000 0.000000 0.000000 -5.916794 0.000000 0.000000 -5.916794 0.000000 0.000000 0.000000 0.000000 0.000000 10.000000 0.000000 0.000000 5.916794 0.000000 0.000000 0.000000 0.000000 0.000000 0.000000 0.000000 0.000000 0.000000 0.000000 0.000000 19.722646 0.000000 0.000000 0.000000 0.000000 0.000000 0.000000 0.000000 0.000000 0.000000 0.000000 0.000000 -19.722646 0.000000 0.000000 19.722646 0.000000 0.000000 0.000000
6.977381 40.000000 7.163530 3.488690 0.000000 0.000000 0.000000 0.000000 0.000000 0.000000 1.744345 0.000000 0.000000 0.000000 0.000000 0.000000 1.046607 0.000000 0.000000 0.000000 -10.000000 0.000000 0.000000 -5.997921 0.000000 0.000000 -5.997921 0.000000 0.000000 0.000000 0.000000 0.000000 10.000000 0.000000 0.000000 5.997921 0.000000 0.000000 0.000000 0.000000 0.000000 0.000000 0.000000 0.000000 0.000000 0.000000 0.000000 19.993070 0.000000 0.000000 0.000000 0.000000 0.000000 0.000000 0.000000 0.000000 0.000000 0.000000 0.000000 -19.993070 0.000000 0.000000 19.993070 0.000000 0.000000 0.000000
7.462683 40.000000 6.656452 3.731342 0.000000 0.000000 0.000000 0.000000 0.000000 0.000000 1.865671 0.000000 0.000000 0.000000 0.000000 0.000000 1.119403 0.000000 0.000000 0.000000 -10.000000 0.000000 0.000000 -5.960999 0.000000 0.000000 -5.960999 0.000000 0.000000 0.000000 0.000000 0.000000 10.000000 0.000000 0.000000 5.960999 0.000000 0.000000 0.000000 0.000000 0.000000 0.000000 0.000000 0.000000 0.000000 0.000000 0.000000 19.869998 0.000000 0.000000 0.000000 0.000000 0.000000 0.000000 0.000000 0.000000 0.000000 0.000000 0.000000 -19.869998 0.000000 0.000000 19.869998 0.000000 0.000000 0.000000
7.911222 40.000000 6.116582 3.955611 0.000000 0.000000 0.000000 0.000000 0.000000 0.000000 1.977805 0.000000 0.000000 0.000000 0.000000 0.000000 1.186683 0.000000 0.000000 0.000000 -10.000000 0.000000 0.000000 -5.806756 0.000000 0.000000 -5.806756 0.000000 0.000000 0.000000 0.000000 0.000000 10.000000 0.000000 0.000000 5.806756 0.000000 0.000000 0.000000 0.000000 0.000000 0.000000 0.000000 0.000000 0.000000 0.000000 0.000000 19.355854 0.000000 0.000000 0.000000 0.000000 0.000000 0.000000 0.000000 0.000000 0.000000 0.000000 0.000000 -19.355854 0.000000 0.000000 19.355854 0.000000 0.000000 0.000000
8.320785 40.000000 5.546578 4.160393 0.000000 0.000000 0.000000 0.000000 0.000000 0.000000 2.080196 0.000000 0.000000 0.000000 0.000000 0.000000 1.248118 0.000000 0.000000 0.000000 -10.000000 0.000000 0.000000 -5.538227 0.000000 0.000000 -5.538227 0.000000 0.000000 0.000000 0.000000 0.000000 10.000000 0.000000 0.000000 5.538227 0.000000 0.000000 0.000000 0.000000 0.000000 0.000000 0.000000 0.000000 0.000000 0.000000 0.000000 18.460755 0.000000 0.000000 0.000000 0.000000 0.000000 0.000000 0.000000 0.000000 0.000000 0.000000 0.000000 -18.460755 0.000000 0.000000 18.460755 0.000000 0.000000 0.000000
8.689357 40.000000 4.949250 4.344678 0.000000 0.000000 0.000000 0.000000 0.000000 0.000000 2.172339 0.000000 0.000000 0.000000 0.000000 0.000000 1.303404 0.000000 0.000000 0.000000 -10.000000 0.000000 0.000000 -5.160696 0.000000 0.000000 -5.160696 0.000000 0.000000 0.000000 0.000000 0.000000 10.000000 0.000000 0.000000 5.160696 0.000000 0.000000 0.000000 0.000000 0.000000 0.000000 0.000000 0.000000 0.000000 0.000000 0.000000 17.202320 0.000000 0.000000 0.000000 0.000000 0.000000 0.000000 0.000000 0.000000 0.000000 0.000000 0.000000 -17.202320 0.000000 0.000000 17.202320 0.000000 0.000000 0.000000
